# xmcd
# Track frame offsets:
# 150
# 13564
# 31641
# 50345
# 63069
# 80128
# 98206
# 113424
# 126267
# 148377
# 154589
# 166650
# 189340
#
# Disc length: 2749 seconds
# Revision: 0
# Processed by: cddbd v1.5.2PL0 Copyright (c) Steve Scherf et al.
# Submitted via: VisiTrax 2.11.2.271 - For more info visit www.synapsa.com
#
DISCID=9a0abb0d
DTITLE=Sideshow Annie - Ghost Town
DYEAR=2013
DGENRE=Country
TTITLE0=Slingshot Baby
TTITLE1=Any Way The Wind Blows
TTITLE2=Guilty
TTITLE3=Stage Fright
TTITLE4=Ghost Town
TTITLE5=Dirty
TTITLE6=Pixie Green
TTITLE7=Festival
TTITLE8=Devil Knows. The
TTITLE9=Devil Knows. The   (reprise )
TTITLE10=Long Way From Home
TTITLE11=Delusions  (2012 remix )
TTITLE12=Spellbound
EXTD=
EXTT0=
EXTT1=
EXTT2=
EXTT3=
EXTT4=
EXTT5=
EXTT6=
EXTT7=
EXTT8=
EXTT9=
EXTT10=
EXTT11=
EXTT12=
PLAYORDER=
